<svg width="243" height="275" viewBox="0 0 243 275" fill="none" xmlns="http://www.w3.org/2000/svg">
<path d="M167.813 122.711L167.121 124.447C178.517 129.445 204.008 149.283 204.008 189.178C204.008 226.743 172.309 264.652 122.52 264.652C60.5372 264.652 39.1768 228.448 39.1768 195.164C39.1768 152.53 68.9973 124.107 68.9973 85.2747C68.9973 58.2357 48.539 31.5442 21.1503 26.6919L20.112 28.4275C31.5481 40.557 35.3638 52.3467 35.3638 64.8275C35.3638 106.77 0 136.581 0 184.764C0 229.14 31.0373 274.319 120.793 274.319C200.802 274.319 243 235.16 243 193.432C242.999 157.73 217.336 127.474 167.813 122.711Z" fill="url(#paint0_linear_584_12)"/>
<path d="M121.836 214.578L144.374 0H97.22L119.757 214.578H121.836Z" fill="#0460A9"/>
<defs>
<linearGradient id="paint0_linear_584_12" x1="-0.000642475" y1="150.505" x2="242.999" y2="150.505" gradientUnits="userSpaceOnUse">
<stop offset="0.3" stop-color="#E74A21"/>
<stop offset="0.7011" stop-color="#EC9A1E"/>
</linearGradient>
</defs>
</svg>
